<?xml version="1.0" standalone="no"?>
<!DOCTYPE svg PUBLIC "-//W3C//DTD SVG 20010904//EN"
 "http://www.w3.org/TR/2001/REC-SVG-20010904/DTD/svg10.dtd">
<svg version="1.0" xmlns="http://www.w3.org/2000/svg"
 width="1000.000000pt" height="1000.000000pt" viewBox="0 0 1000.000000 1000.000000"
 preserveAspectRatio="xMidYMid meet">
<metadata>
Created by potrace 1.15, written by Peter Selinger 2001-2017
</metadata>
<g transform="translate(0.000000,1000.000000) scale(0.100000,-0.100000)"
fill="#212985" stroke="none">
<path d="M2400 7940 c-107 -22 -173 -48 -261 -100 -189 -112 -320 -299 -365
-520 -24 -120 -15 -320 20 -450 33 -119 112 -279 214 -435 246 -375 549 -652
953 -872 202 -110 181 -109 348 -23 417 214 731 492 983 870 173 260 252 462
265 676 24 407 -211 741 -595 846 -120 33 -317 30 -437 -6 -113 -34 -211 -85
-300 -157 l-70 -57 -49 45 c-104 93 -250 161 -402 188 -111 19 -198 18 -304
-5z m365 -214 c138 -47 234 -121 336 -259 l57 -78 71 95 c147 195 330 285 556
273 280 -15 502 -198 561 -463 20 -92 15 -266 -10 -359 -76 -276 -355 -666
-655 -917 -119 -99 -296 -217 -424 -283 l-97 -50 -102 52 c-393 199 -746 544
-971 948 -197 354 -172 705 65 919 67 61 174 118 263 140 94 24 250 16 350
-18z"/>
<path d="M4867 7303 c-4 -3 -7 -48 -7 -100 l0 -93 1058 0 c844 -1 1072 -3
1132 -14 388 -70 701 -363 802 -751 l23 -90 0 -1620 0 -1620 -23 -85 c-116
-425 -454 -716 -883 -760 -141 -14 -2975 -14 -3106 1 -239 26 -439 123 -608
293 -132 133 -215 276 -268 464 -22 77 -22 82 -25 1175 l-3 1097 -100 0 -100
0 4 -1097 c3 -991 5 -1105 20 -1168 29 -121 56 -197 107 -300 168 -341 494
-584 868 -650 75 -13 296 -15 1657 -15 1702 0 1657 -1 1828 55 411 134 704
460 810 900 l22 90 0 1620 0 1620 -22 98 c-72 314 -252 579 -512 752 -159 106
-335 172 -516 194 -99 12 -2146 16 -2158 4z"/>
<path d="M5200 5994 c-505 -78 -953 -470 -1095 -959 -73 -253 -75 -541 -4
-780 185 -628 785 -1040 1432 -985 631 55 1138 523 1242 1149 21 125 16 383
-10 501 -142 645 -702 1095 -1356 1089 -63 -1 -157 -7 -209 -15z m429 -199
c233 -45 446 -154 609 -314 234 -229 356 -520 355 -846 -2 -563 -385 -1030
-945 -1151 -99 -22 -338 -25 -438 -5 -160 31 -340 108 -470 199 -87 61 -234
211 -293 300 -150 225 -223 506 -197 762 25 251 107 451 264 647 159 197 409
348 666 402 121 25 332 28 449 6z"/>
</g>
</svg>
